{"accessors":[{"bufferView":0,"componentType":5121,"count":36,"max":[23],"min":[0],"type":"SCALAR"},{"bufferView":1,"componentType":5126,"count":24,"max":[0.8028185367584229,0.018812784925103188,0.2197878360748291],"min":[-0.8028185367584229,-0.018812784925103188,-0.2197878360748291],"type":"VEC3"},{"bufferView":2,"componentType":5126,"count":24,"max":[1.0,1.0,1.0],"min":[-1.0,-1.0,-1.0],"type":"VEC3"},{"bufferView":3,"componentType":5126,"count":24,"max":[0.875,1.0],"min":[0.125,0.0],"type":"VEC2"},{"bufferView":4,"componentType":5121,"count":132,"max":[87],"min":[0],"type":"SCALAR"},{"bufferView":5,"componentType":5126,"count":88,"max":[1.8449769020080566,1.1506538391113281,0.9823055863380432],"min":[-2.0849006175994873,0.11308331042528152,-1.0063128471374512],"type":"VEC3"},{"bufferView":6,"componentType":5126,"count":88,"max":[0.7398836016654968,0.9999976754188538,0.9998679757118225],"min":[-0.9999569654464722,-0.9970331788063049,-0.9999935626983643],"type":"VEC3"},{"bufferView":7,"componentType":5126,"count":88,"max":[0.875,1.0],"min":[0.125,0.0],"type":"VEC2"}],"asset":{"generator":"Soft8Soft Verge3D for Blender add-on","version":"2.0"},"bufferViews":[{"buffer":0,"byteLength":36,"byteOffset":0,"target":34963},{"buffer":0,"byteLength":288,"byteOffset":36,"target":34962},{"buffer":0,"byteLength":288,"byteOffset":324,"target":34962},{"buffer":0,"byteLength":192,"byteOffset":612,"target":34962},{"buffer":0,"byteLength":132,"byteOffset":804,"target":34963},{"buffer":0,"byteLength":1056,"byteOffset":936,"target":34962},{"buffer":0,"byteLength":1056,"byteOffset":1992,"target":34962},{"buffer":0,"byteLength":704,"byteOffset":3048,"target":34962}],"buffers":[{"byteLength":3752,"uri":"3d-calculator.bin"}],"cameras":[{"extensions":{"S8S_v3d_camera_data":{"controls":"ORBIT","enablePan":true,"moveSpeed":1.0,"orbitMaxDistance":100.0,"orbitMaxPolarAngle":3.1415927410125732,"orbitMaxZoom":100.0,"orbitMinDistance":0.0,"orbitMinPolarAngle":0.0,"orbitMinZoom":0.009999999776482582,"orbitTarget":[0.0,0.0,-0.0],"rotateSpeed":1.0,"viewportFitInitialAspect":1.7777777777777777,"viewportFitType":"AUTO"}},"name":"Camera.001","perspective":{"aspectRatio":1.7777777777777777,"yfov":0.39959652046304894,"zfar":1000.0,"znear":0.10000000149011612},"type":"perspective"}],"extensionsUsed":["S8S_v3d_texture_data","S8S_v3d_material_data","S8S_v3d_camera_data","S8S_v3d_mesh_data","S8S_v3d_node_data","S8S_v3d_scene_data"],"images":[{"uri":"v3d_exported_image_screen"},{"uri":"environment.hdr"}],"materials":[{"extensions":{"S8S_v3d_material_data":{"nodeGraph":{"edges":[{"fromNode":1,"fromOutput":0,"toInput":0,"toNode":0},{"fromNode":2,"fromOutput":0,"toInput":0,"toNode":1}],"nodes":[{"inputs":[[0,0,0,0],[0,0,0,0],[0.0,0.0,0.0]],"is_active_output":true,"name":"Material Output","outputs":[],"type":"OUTPUT_MATERIAL_BL"},{"inputs":[[0.0,0.0,0.0,1.0],1.0],"is_active_output":false,"name":"Emission","outputs":[[0,0,0,0]],"type":"EMISSION_BL"},{"inputs":[[0.0,0.0,0.0]],"is_active_output":false,"name":"Image Texture","outputs":[[0.0,0.0,0.0,0.0],0.0],"projection":"FLAT","projectionBlend":0.0,"texture":0,"type":"TEX_IMAGE_BL"}]},"useCastShadows":true}},"name":"screen"},{"extensions":{"S8S_v3d_material_data":{"nodeGraph":{"edges":[{"fromNode":0,"fromOutput":0,"toInput":0,"toNode":1},{"fromNode":4,"fromOutput":0,"toInput":1,"toNode":2},{"fromNode":3,"fromOutput":0,"toInput":0,"toNode":2},{"fromNode":2,"fromOutput":0,"toInput":0,"toNode":0}],"nodes":[{"inputs":[[0.05087608844041824,0.05087608844041824,0.05087608844041824,1.0],1.0],"is_active_output":false,"name":"Background","outputs":[[0,0,0,0]],"type":"BACKGROUND_BL"},{"inputs":[[0,0,0,0],[0,0,0,0]],"is_active_output":true,"name":"World Output","outputs":[],"type":"OUTPUT_WORLD_BL"},{"blendType":"MIX","inputs":[0.5,[0.5,0.5,0.5,1.0],[0.05126946419477463,0.05126946419477463,0.05126946419477463,1.0]],"is_active_output":false,"name":"Mix","outputs":[[0.0,0.0,0.0,0.0]],"type":"MIX_RGB_BL","useClamp":false},{"inputs":[],"is_active_output":false,"name":"Light Path","outputs":[0.0,0.0,0.0,0.0,0.0,0.0,0.0,0.0,0.0,0.0,0.0,0.0,0.0],"type":"LIGHT_PATH_BL"},{"inputs":[[0.0,0.0,0.0]],"is_active_output":false,"name":"Environment Texture","outputs":[[0.0,0.0,0.0,0.0]],"projection":"EQUIRECTANGULAR","texture":1,"type":"TEX_ENVIRONMENT_BL"}]},"useCastShadows":true}},"name":"Verge3D_Environment_World"},{"emissiveFactor":[0.0,0.0,0.0],"extensions":{"S8S_v3d_material_data":{"nodeGraph":{"edges":[{"fromNode":1,"fromOutput":0,"toInput":0,"toNode":0}],"nodes":[{"inputs":[[0,0,0,0],[0,0,0,0],0.0],"is_active_output":true,"name":"Material Output","outputs":[],"type":"OUTPUT_MATERIAL_BL"},{"inputs":[[0.800000011920929,0.800000011920929,0.800000011920929,1.0],0.0,[0.0,0.0,0.0]],"is_active_output":false,"name":"Diffuse BSDF","outputs":[[0,0,0,0]],"type":"BSDF_DIFFUSE_BL"}]},"useCastShadows":true,"useShadows":true}},"name":"v3d_default_material"}],"meshes":[{"extensions":{"S8S_v3d_mesh_data":{"colorLayers":{},"uvLayers":{"UVMap":"TEXCOORD_0"}}},"name":"Cube","primitives":[{"attributes":{"NORMAL":2,"POSITION":1,"TEXCOORD_0":3},"indices":0,"material":0,"mode":4}]},{"extensions":{"S8S_v3d_mesh_data":{"colorLayers":{},"uvLayers":{}}},"name":"Cube.001","primitives":[{"attributes":{"NORMAL":6,"POSITION":5,"TEXCOORD_0":7},"indices":4,"material":2,"mode":4}]}],"nodes":[{"extensions":{"S8S_v3d_node_data":{"frustumCulling":true,"groupNames":["Collection 1"],"hidden":false,"renderOrder":0,"useShadows":true}},"mesh":0,"name":"screen","rotation":[-0.0015363412676379085,-0.009177844040095806,-0.010104670189321041,0.9999056458473206],"translation":[0.0029530227184295654,0.9375160932540894,-0.48445284366607666]},{"camera":0,"extensions":{"S8S_v3d_node_data":{"frustumCulling":true,"groupNames":["Collection 1"],"hidden":false,"renderOrder":0}},"name":"Camera","rotation":[8.429369557916289e-08,0.0,0.0,1.0],"scale":[1.0,1.0,1.0],"translation":[0.0,1.5860480070114136,8.846342086791992]},{"extensions":{"S8S_v3d_node_data":{"frustumCulling":true,"groupNames":["Collection 1"],"hidden":false,"renderOrder":0,"useShadows":true}},"mesh":1,"name":"calc","rotation":[0.7047834992408752,0.008284665644168854,0.7089574337005615,0.02430720254778862],"scale":[0.9640275239944458,0.9993021488189697,0.9633053541183472],"translation":[0.0,1.0798044204711914,-0.0]}],"samplers":[{}],"scene":0,"scenes":[{"extensions":{"S8S_v3d_scene_data":{"aaMethod":"AUTO","iblEnvironmentMode":"PMREM","physicallyCorrectLights":true,"pmremMaxTileSize":256,"shadowMap":{"esmDistanceScale":1.0,"renderReverseSided":false,"renderSingleSided":true,"type":"PCFPOISSON"},"worldMaterial":1}},"extras":{"animFrameRate":24,"coordSystem":"Z_UP_RIGHT"},"name":"Scene","nodes":[2,1,0]}],"textures":[{"extensions":{"S8S_v3d_texture_data":{"colorSpace":"srgb"}},"name":"screen","sampler":0,"source":0},{"extensions":{"S8S_v3d_texture_data":{"colorSpace":"linear"}},"name":"environment.hdr","sampler":0,"source":1}]}
